<svg width="96" height="96" viewBox="0 0 96 96" fill="none" xmlns="http://www.w3.org/2000/svg">
<rect width="96" height="96" fill="white"/>
<path d="M55.8011 28.8626H63.5405L80.6378 78.7355L85 79.4583V83H66.4253V79.4583L72.265 78.7355L68.9582 68.0381H48.4134L45.1065 78.7355L51.1574 79.4583V83H34.4823V79.4583L38.8446 78.7355L55.8011 28.8626ZM60.2337 40.4273L58.4747 34.0667L56.7861 40.5719L49.6798 63.7736H67.6214L60.2337 40.4273Z" fill="#63524C"/>
<path d="M41.1313 68.077C38.6921 68.077 36.511 67.8602 34.5879 67.4265C32.6647 66.9928 30.554 66.4146 28.2556 65.6918C26.8484 65.1618 25.793 64.8726 25.0894 64.8245L25.6523 51.7419H30.1553L31.3514 61.1382C32.1488 61.9092 33.4387 62.6079 35.2211 63.2343C37.0504 63.8125 39.0439 64.1017 41.2016 64.1017C44.7665 64.1017 47.4636 63.2825 49.2929 61.6442C51.1691 60.0058 52.1072 57.7411 52.1072 54.8499C52.1072 52.9706 51.5913 51.3564 50.5593 50.0071C49.5743 48.6579 48.2375 47.5015 46.5489 46.5377C44.9072 45.574 42.6322 44.4416 39.7241 43.1406C37.0973 41.9359 34.799 40.7072 32.8289 39.4543C30.9058 38.2015 29.2171 36.539 27.7631 34.467C26.3559 32.3468 25.6523 29.8171 25.6523 26.8777C25.6523 24.2274 26.3324 21.8663 27.6927 19.7943C29.0999 17.6741 31.0934 16.0116 33.6732 14.807C36.2999 13.6023 39.3488 13 42.8199 13C44.9775 13 46.8772 13.1687 48.5189 13.506C50.2076 13.8433 52.1072 14.301 54.218 14.8793C55.1561 15.2166 55.9535 15.4334 56.6102 15.5298L56.1881 27.6728H51.8962L50.489 18.7824C50.0199 18.3005 49.0349 17.8427 47.5339 17.4091C46.0798 16.9754 44.485 16.7585 42.7495 16.7585C39.513 16.7585 37.0504 17.4572 35.3618 18.8546C33.7201 20.2521 32.8993 22.2759 32.8993 24.9261C32.8993 26.8536 33.3918 28.4678 34.3768 29.7689C35.4087 31.0699 36.6752 32.1782 38.1762 33.0937C39.6772 34.0093 42.0694 35.2621 45.3528 36.8523C48.4017 38.346 50.8877 39.6953 52.8108 40.8999C54.734 42.1046 56.3757 43.6947 57.736 45.6704C59.1431 47.5978 59.8467 49.9108 59.8467 52.6092C59.8467 55.1631 59.1431 57.6206 57.736 59.9817C56.3757 62.3429 54.2649 64.2944 51.4037 65.8364C48.5893 67.3302 45.1652 68.077 41.1313 68.077Z" fill="#63524C"/>
<path d="M31.0523 60.849L15.2215 32.5877L11 31.648V28.0341H29.3637V31.648L23.8053 32.5154L33.7259 51.8863L35.9774 57.3796L38.5103 51.8863L47.8681 32.5154L42.0986 31.648V28.0341H58.1405V31.648L53.5671 32.5154L38.8621 60.7767V77.401L46.7423 78.1961V81.7378H23.3832V78.1961L31.0523 77.4733V60.849Z" fill="#63524C"/>
</svg>
